Prometheus*2012*[1080p.DTS-HD.MA 7.1.AC3.BluRay.x264-LEON 345]
 =======================================================

IMDB  [url]http://www.imdb.com/title/tt1446714/?ref_=sr_1[/url]


gatunek: Horror, Akcja, Sci-Fi
 premiera: 20 lipca 2012 (Polska), 30 maja 2012 (świat)
 produkcja: USA, Wielka Brytania

 Oczekiwany z ogromnym zainteresowaniem najnowszy film Ridleya Scotta ("Robin Hood", "Królestwo niebieskie"), jego pierwszy film science fiction od czasu legendarnego "Łowcy androidów", którego akcja nawiązywać będzie do wątków słynnej serii o Obcym. W rolach głównych: niezapomniana Lisbeth Salander z trylogii "Millennium" Noomi Rapace i Michael Fassbender ("Bękarty wojny", "X-Men: Pierwsza klasa").

 General
 Unique ID                      : 206021487261176245629553223739501411822 (0x9AFE4B8EF9298E059FB858A0AA1F7DEE)
 Complete name                  : F:FilmyFilmy 3DSzablonWstawkaPROMETHEUS_2012.(Leon 345)PROMETHEUS_2012.(Leon 345).mkv
 Format                         : Matroska
 Format version                 : Version 2
 File size                      : 13.7 GiB
 Duration                       : 2h 3mn
 Encoding type                  : 2  pass
 Overall bit rate mode          : Variable
 Overall bit rate               : 15.9 Mbps
 Encoded date                   : UTC 2013-05-22 12:58:07
 Writing application            : mkvmerge v5.7.0 ('The Whirlwind') built on Jul  8 2012 20:08:51
 Writing library                : libebml v1.2.3 + libmatroska v1.3.0

 Video
 ID                             : 1
 Format                         : AVC
 Format/Info                    : Advanced Video Codec
 Format profile                 : High@L4.1
 Format settings, CABAC         : Yes
 Format settings, ReFrames      : 2 frames
 Codec ID                       : V_MPEG4/ISO/AVC
 Duration                       : 2h 3mn
 Bit rate mode                  : Variable
 Nominal bit rate               : 9 792 Kbps
 Maximum bit rate               : 34.7 Mbps
 Width                          : 1 920 pixels
 Height                         : 1 080 pixels
 Display aspect ratio           : 16:9
 Frame rate mode                : Constant
 Frame rate                     : 23.976 fps
 Color space                    : YUV
 Chroma subsampling             : 4:2:0
 Bit depth                      : 8 bits
 Scan type                      : Progressive
 Bits/(Pixel*Frame)             : 0.197
 Title                          : Rip  by Leon 345  encoding  2 pass
 Writing library                : x264 core 132 r2309 3b1f1f7
 Encoding settings              : cabac=1 / ref=1 / deblock=1:0:0 / analyse=0x3:0x3 / me=dia / subme=1 / psy=1 / psy_rd=1.00:0.00 / mixed_ref=0 / me_range=16 / chroma_me=1 / trellis=0 / 8x8dct=1 / cqm=0 / deadzone=21,11 / fast_pskip=1 / chroma_qp_offset=0 / threads=6 / lookahead_threads=1 / sliced_threads=0 / slices=4 / slices_max=4 / nr=0 / decimate=1 / interlaced=0 / bluray_compat=1 / constrained_intra=0 / bframes=3 / b_pyramid=0 / b_adapt=1 / b_bias=0 / direct=1 / weightb=1 / open_gop=0 / weightp=1 / keyint=24 / keyint_min=1 / scenecut=40 / intra_refresh=0 / rc_lookahead=0 / rc=2pass / mbtree=0 / bitrate=9792 / ratetol=1.0 / qcomp=0.60 / qpmin=0 / qpmax=69 / qpstep=4 / cplxblur=20.0 / qblur=0.5 / vbv_maxrate=34695 / vbv_bufsize=29838 / nal_hrd=vbr / ip_ratio=1.10 / pb_ratio=1.10 / aq=1:1.00
 Default                        : Yes
 Forced                         : No

 Audio #1
 ID                             : 2
 Format                         : AC-3
 Format/Info                    : Audio Coding 3
 Mode extension                 : CM (complete main)
 Format settings, Endianness    : Big
 Codec ID                       : A_AC3
 Duration                       : 2h 3mn
 Bit rate mode                  : Constant
 Bit rate                       : 448 Kbps
 Channel(s)                     : 6 channels
 Channel positions              : Front: L C R, Side: L R, LFE
 Sampling rate                  : 48.0 KHz
 Bit depth                      : 16 bits
 Compression mode               : Lossy
 Stream size                    : 397 MiB (3%)
 Title                          : AC3  5.1  Lektor  PL
 Language                       : Polish
 Default                        : Yes
 Forced                         : Yes

 Audio #2
 ID                             : 3
 Format                         : AC-3
 Format/Info                    : Audio Coding 3
 Mode extension                 : CM (complete main)
 Format settings, Endianness    : Big
 Codec ID                       : A_AC3
 Duration                       : 2h 3mn
 Bit rate mode                  : Constant
 Bit rate                       : 640 Kbps
 Channel(s)                     : 6 channels
 Channel positions              : Front: L C R, Side: L R, LFE
 Sampling rate                  : 48.0 KHz
 Bit depth                      : 16 bits
 Compression mode               : Lossy
 Stream size                    : 567 MiB (4%)
 Title                          : AC3  5.1 Orginal
 Language                       : English
 Default                        : No
 Forced                         : No

 Audio #3
 ID                             : 4
 Format                         : DTS
 Format/Info                    : Digital Theater Systems
 Format profile                 : MA / Core
 Mode                           : 16
 Format settings, Endianness    : Big
 Codec ID                       : A_DTS
 Duration                       : 2h 3mn
 Bit rate mode                  : Variable
 Bit rate                       : 4984 kbps  / 1 509 Kbps
 Channel(s)                     : 8 channels / 6 channels
 Channel positions              : Front: L C R, Side: L R, Back: L R, LFE / Front: L C R, Side: L R, LFE
 Sampling rate                  : 48.0 KHz
 Bit depth                      : 24 bits
 Compression mode               : Lossless / Lossy
 Title                          : DTS-HD MA  7.1  Orginal
 Language                       : English
 Default                        : No
 Forced                         : No

 Text #1
 ID                             : 5
 Format                         : PGS
 Muxing mode                    : zlib
 Codec ID                       : S_HDMV/PGS
 Codec ID/Info                  : The same subtitle format used on BDs/HD-DVDs
 Language                       : Polish
 Default                        : No
 Forced                         : No

 Text #2
 ID                             : 6
 Format                         : PGS
 Muxing mode                    : zlib
 Codec ID                       : S_HDMV/PGS
 Codec ID/Info                  : The same subtitle format used on BDs/HD-DVDs
 Language                       : English
 Default                        : No
 Forced                         : No

 Text #3
 ID                             : 7
 Format                         : UTF-8
 Codec ID                       : S_TEXT/UTF8
 Codec ID/Info                  : UTF-8 Plain Text
 Default                        : Yes
 Forced                         : Yes

 Source [thx]:
 A/V-Prometheus (2012) Blu-ray EUR 1080p AVC DTS 5.1-HDCLUB
